#!OML:ASF F:\VICON\USERDATA\INSTALL\rory3\rory3.ASF
:FULLY-SPECIFIED
:DEGREES
361
root 0.388215 17.8295 34.1612 -1.34403 -4.66312 -7.90742
lowerback 11.2852 1.75784 6.50735
upperback -0.370006 3.32101 1.71948
thorax -6.47027 1.43693 -2.39119
lowerneck -16.8633 -3.40663 -1.81568
upperneck 19.6825 -4.66637 1.87692
head 9.04862 -2.11606 0.349048
rclavicle 2.11209e-015 8.94531e-015
rhumerus -23.1695 -10.8054 -81.9719
rradius 33.083
rwrist -0.951518
rhand -17.9713 23.0656
rfingers 7.12502
rthumb 8.29802 -6.75147
lclavicle 2.11209e-015 8.94531e-015
lhumerus -35.1639 6.15981 82.1407
lradius 25.2897
lwrist 8.29566
lhand -28.3314 22.4813
lfingers 7.12502
lthumb -1.70599 52.4542
rfemur 0.0640934 6.75796 35.5353
rtibia 26.7429
rfoot -18.9873 -9.6973
rtoes 9.67227
lfemur -28.0075 -2.01396 -10.7609
ltibia 38.6594
lfoot -5.8619 5.80986
ltoes -1.40706
362
root 0.391025 17.8136 34.3202 -1.11912 -4.76262 -8.03197
lowerback 11.3891 1.84675 6.64259
upperback -0.460363 3.46853 1.67655
thorax -6.60296 1.497 -2.54166
lowerneck -17.0171 -3.45188 -1.66887
upperneck 19.646 -4.76638 1.88203
head 9.06233 -2.14999 0.311538
rclavicle 6.90156e-014 3.12092e-014
rhumerus -22.6247 -10.7435 -82.0929
rradius 33.0106
rwrist -1.16674
rhand -18.2494 23.6405
rfingers 7.12502
rthumb 8.02959 -6.18693
lclavicle 6.90156e-014 3.12092e-014
lhumerus -35.3357 6.37634 81.897
lradius 25.0431
lwrist 8.35736
lhand -28.0279 23.1602
lfingers 7.12502
lthumb -1.41285 53.1352
rfemur 0.609803 6.89253 35.7068
rtibia 26.37
rfoot -19.188 -9.88381
rtoes 9.64739
lfemur -28.1605 -2.50941 -10.2843
ltibia 35.7354
lfoot -5.2208 5.5198
ltoes -0.571704
363
root 0.394051 17.7922 34.4843 -0.985857 -4.69614 -8.16403
lowerback 11.5745 1.83213 6.7278
upperback -0.6622 3.49159 1.71132
thorax -6.92026 1.48992 -2.56957
lowerneck -16.9472 -3.49364 -1.67852
upperneck 19.7811 -4.80781 1.79958
head 9.095 -2.17872 0.279858
rclavicle -3.05507e-014 -2.0276e-014
rhumerus -22.7031 -10.5515 -82.0952
rradius 33.3786
rwrist -1.31297
rhand -18.2767 23.6291
rfingers 7.12502
rthumb 8.00327 -6.19935
lclavicle -3.05507e-014 -2.0276e-014
lhumerus -36.0066 6.60887 81.7244
lradius 25.1604
lwrist 8.83023
lhand -28.9425 20.9713
lfingers 7.12502
lthumb -2.29617 50.9386
rfemur 1.28231 6.86895 35.8954
rtibia 25.9189
rfoot -19.3172 -10.111
rtoes 9.81559
lfemur -28.1475 -2.89815 -9.91765
ltibia 32.7669
lfoot -4.53127 5.037
ltoes -1.6356
364
root 0.403978 17.7894 34.6671 -0.824949 -4.69722 -8.05897
lowerback 11.3168 1.85913 6.66847
upperback -0.639731 3.49521 1.70706
thorax -6.75239 1.50082 -2.52896
lowerneck -17.1444 -3.47291 -1.76518
upperneck 19.8688 -4.74431 1.75413
head 9.16106 -2.15788 0.282713
rclavicle -6.21202e-016 2.92213e-014
rhumerus -22.6621 -10.5 -82.0697
rradius 34.1075
rwrist -1.39429
rhand -18.1496 23.3225
rfingers 7.12502
rthumb 8.12598 -6.5013
lclavicle -6.21202e-016 2.92213e-014
lhumerus -36.2118 7.58588 81.267
lradius 24.819
lwrist 7.89894
lhand -29.4627 19.5726
lfingers 7.12502
lthumb -2.79857 49.534
rfemur 2.0858 6.65138 35.6984
rtibia 25.3399
rfoot -19.7205 -9.9417
rtoes 9.68522
lfemur -28.0461 -3.44094 -9.79457
ltibia 29.8833
lfoot -4.40441 4.60107
ltoes -2.2896
365
root 0.416444 17.7887 34.8534 -0.592655 -4.77056 -8.00668
lowerback 10.8955 1.9268 6.73723
upperback -0.507524 3.54809 1.6895
thorax -6.36218 1.54151 -2.57049
lowerneck -17.3384 -3.42856 -1.8649
upperneck 19.6324 -4.66208 1.82709
head 9.11752 -2.11887 0.333153
rclavicle -2.18787e-014 -5.36719e-015
rhumerus -22.0271 -10.5883 -82.0794
rradius 34.297
rwrist -1.36489
rhand -18.1966 23.4373
rfingers 7.12502
rthumb 8.08059 -6.3882
lclavicle -2.18787e-014 -5.36719e-015
lhumerus -36.0929 8.4326 80.9108
lradius 24.3936
lwrist 7.35369
lhand -29.6574 19.1144
lfingers 7.12502
lthumb -2.98658 49.0732
rfemur 2.87806 6.42676 35.511
rtibia 24.6811
rfoot -20.0808 -9.68356
rtoes 8.89256
lfemur -27.9554 -4.15738 -9.53006
ltibia 27.1126
lfoot -5.18311 4.47767
ltoes 0.343482
366
root 0.424751 17.7671 35.0389 -0.492732 -4.95994 -8.15784
lowerback 10.7626 2.00939 6.90798
upperback -0.466508 3.66867 1.74176
thorax -6.22583 1.60175 -2.62064
lowerneck -17.3513 -3.43745 -2.01274
upperneck 19.5408 -4.66991 1.99618
head 9.09672 -2.11536 0.414418
rclavicle -8.57259e-015 4.96962e-015
rhumerus -21.6731 -10.1853 -82.0923
rradius 34.4984
rwrist -1.62895
rhand -18.535 23.5032
rfingers 7.12502
rthumb 7.75399 -6.33466
lclavicle -8.57259e-015 4.96962e-015
lhumerus -36.253 9.27395 80.5239
lradius 23.9999
lwrist 7.10466
lhand -29.8449 18.9386
lfingers 7.12502
lthumb -3.16768 48.8948
rfemur 3.87371 6.24344 35.6087
rtibia 23.9359
rfoot -20.082 -9.63408
rtoes 6.82625
lfemur -27.6609 -4.81254 -9.01386
ltibia 24.4836
lfoot -5.19635 4.50111
ltoes -0.876598
367
root 0.431598 17.7356 35.2158 -0.422237 -5.24147 -8.21289
lowerback 10.8812 2.16632 6.95982
upperback -0.604222 3.90234 1.72983
thorax -6.41459 1.70398 -2.70624
lowerneck -17.1743 -3.49697 -1.98083
upperneck 19.598 -4.75992 1.96972
head 9.08469 -2.15925 0.391004
rclavicle 1.55176e-014 -1.78906e-015
rhumerus -21.8495 -10.0965 -82.0663
rradius 35.0038
rwrist -2.08139
rhand -18.4598 23.2254
rfingers 7.12502
rthumb 7.82656 -6.60969
lclavicle 1.55176e-014 -1.78906e-015
lhumerus -36.7968 9.6266 80.1778
lradius 23.8151
lwrist 6.90524
lhand -29.6267 18.9787
lfingers 7.12502
lthumb -2.95698 48.9379
rfemur 4.93098 6.21849 35.6446
rtibia 23.232
rfoot -19.9608 -9.77489
rtoes 3.45504
lfemur -27.4356 -5.38646 -8.55516
ltibia 21.9879
lfoot -5.555 4.58572
ltoes -1.44954
368
root 0.436125 17.708 35.3938 -0.335096 -5.35525 -8.33954
lowerback 10.838 2.22873 7.04412
upperback -0.672496 3.99794 1.75033
thorax -6.45036 1.74546 -2.74514
lowerneck -17.077 -3.50089 -1.7949
upperneck 19.6342 -4.76825 1.75171
head 9.06881 -2.17404 0.286658
rclavicle -8.10048e-015 8.74653e-015
rhumerus -21.8636 -10.192 -82.1347
rradius 35.3955
rwrist -2.37339
rhand -18.3328 23.2851
rfingers 7.12502
rthumb 7.94909 -6.54542
lclavicle -8.10048e-015 8.74653e-015
lhumerus -37.1598 9.6761 79.9713
lradius 23.6201
lwrist 7.18569
lhand -29.8325 18.1867
lfingers 7.12502
lthumb -3.15569 48.1431
rfemur 5.84453 6.25441 35.7821
rtibia 22.727
rfoot -20.0451 -9.90983
rtoes 0.822493
lfemur -27.2926 -6.07336 -8.0329
ltibia 19.6075
lfoot -5.80868 4.73572
ltoes -2.71766
369
root 0.445737 17.6975 35.5864 -0.111222 -5.40148 -8.27905
lowerback 10.3516 2.2806 7.01097
upperback -0.605635 4.01172 1.71351
thorax -6.10117 1.76856 -2.73872
lowerneck -17.2322 -3.50891 -1.68329
upperneck 19.6312 -4.7905 1.6795
head 9.09146 -2.18258 0.238264
rclavicle -2.80783e-015 1.78906e-014
rhumerus -21.6596 -10.1373 -82.2157
rradius 35.8105
rwrist -2.55584
rhand -18.3782 23.5994
rfingers 7.12502
rthumb 7.90535 -6.23282
lclavicle -2.80783e-015 1.78906e-014
lhumerus -37.1923 10.0354 79.6779
lradius 23.0825
lwrist 7.10153
lhand -30.0905 17.2183
lfingers 7.12502
lthumb -3.40486 47.1709
rfemur 6.43809 6.06613 35.5852
rtibia 22.4417
rfoot -20.3568 -9.80352
rtoes -1.02904
lfemur -27.2001 -7.00523 -7.68959
ltibia 17.3671
lfoot -5.87698 5.3173
ltoes -2.71927
370
root 0.45981 17.6923 35.764 0.0356393 -5.43178 -8.14239
lowerback 10.3163 2.34249 6.95649
upperback -0.657332 4.08402 1.66124
thorax -6.12898 1.80288 -2.77305
lowerneck -17.3375 -3.47625 -1.75314
upperneck 19.7073 -4.7525 1.79223
head 9.1412 -2.15571 0.290661
rclavicle 2.48108e-014 -1.0138e-014
rhumerus -21.5748 -10.1247 -82.2058
rradius 36.2146
rwrist -2.70442
rhand -18.3755 23.391
rfingers 7.12502
rthumb 7.90789 -6.44114
lclavicle 2.48108e-014 -1.0138e-014
lhumerus -37.3419 10.6929 79.2485
lradius 22.4623
lwrist 6.49324
lhand -30.3683 16.3458
lfingers 7.12502
lthumb -3.67311 46.2939
rfemur 6.89895 5.91344 35.3118
rtibia 22.3426
rfoot -20.7036 -9.58013
rtoes -2.23785
lfemur -27.0562 -7.42052 -7.66163
ltibia 15.4264
lfoot -6.09682 5.79697
ltoes -2.98757
371
root 0.474783 17.6725 35.9449 0.107097 -5.55266 -8.17535
lowerback 10.3697 2.4154 7.06682
upperback -0.652641 4.19973 1.67374
thorax -6.13692 1.85578 -2.84006
lowerneck -17.5409 -3.45249 -1.97755
upperneck 19.8306 -4.71112 2.02224
head 9.23227 -2.12435 0.407164
rclavicle -3.62658e-014 2.32578e-014
rhumerus -21.385 -10.113 -82.1766
rradius 36.5957
rwrist -2.64214
rhand -18.5934 23.0137
rfingers 7.12502
rthumb 7.69765 -6.82617
lclavicle -3.62658e-014 2.32578e-014
lhumerus -37.4391 11.1725 79.0198
lradius 21.9124
lwrist 6.50235
lhand -31.0276 14.8938
lfingers 7.12502
lthumb -4.3098 44.83
rfemur 7.35064 5.97779 35.2829
rtibia 22.5233
rfoot -21.1109 -9.51555
rtoes -3.98265
lfemur -26.684 -7.08354 -7.7781
ltibia 13.7731
lfoot -6.69916 6.0117
ltoes -5.0922
372
root 0.488558 17.6435 36.134 0.143989 -5.7498 -8.39882
lowerback 10.5055 2.45724 7.31017
upperback -0.767204 4.30831 1.71705
thorax -6.31271 1.8916 -2.95609
lowerneck -17.4928 -3.44009 -1.98087
upperneck 19.9726 -4.70795 2.06367
head 9.27403 -2.11773 0.422178
rclavicle -9.72802e-015 1.27222e-014
rhumerus -21.6033 -10.1037 -82.2359
rradius 37.0279
rwrist -2.63822
rhand -18.6852 23.1962
rfingers 7.12502
rthumb 7.60898 -6.64689
lclavicle -9.72802e-015 1.27222e-014
lhumerus -37.9387 11.1566 78.8676
lradius 21.6134
lwrist 7.44732
lhand -31.6609 13.0062
lfingers 7.12502
lthumb -4.92126 42.9291
rfemur 7.82628 6.28434 35.5147
rtibia 22.8996
rfoot -21.4266 -9.65316
rtoes -5.95258
lfemur -26.1906 -6.90642 -7.61836
ltibia 12.4792
lfoot -7.64021 6.48195
ltoes -6.86714
373
root 0.501535 17.6225 36.309 0.273774 -5.77071 -8.40906
lowerback 10.7309 2.45866 7.35712
upperback -1.03705 4.35308 1.68243
thorax -6.71963 1.88802 -3.04711
lowerneck -17.3267 -3.45473 -1.91673
upperneck 20.175 -4.75098 2.04499
head 9.31286 -2.13493 0.400977
rclavicle 7.58488e-015 -1.68967e-014
rhumerus -22.0813 -10.1729 -82.2652
rradius 37.4357
rwrist -2.79873
rhand -18.4441 23.7198
rfingers 7.12502
rthumb 7.84169 -6.11477
lclavicle 7.58488e-015 -1.68967e-014
lhumerus -38.4761 11.1194 78.6044
lradius 21.2089
lwrist 8.16594
lhand -31.535 13.4433
lfingers 7.12502
lthumb -4.79979 43.3689
rfemur 8.07718 6.58565 35.5235
rtibia 23.2903
rfoot -21.3515 -9.44038
rtoes -5.78976
lfemur -26.1013 -6.63487 -7.75479
ltibia 11.9129
lfoot -7.2025 6.50673
ltoes -7.92294
374
root 0.519791 17.6152 36.4959 0.361713 -5.63088 -7.88438
lowerback 10.6447 2.43875 6.90156
upperback -1.09956 4.25499 1.55408
thorax -6.76776 1.85184 -2.9125
lowerneck -17.4736 -3.43133 -1.85568
upperneck 20.3581 -4.72029 1.96777
head 9.39927 -2.12146 0.364874
rclavicle 4.88265e-015 -4.37326e-015
rhumerus -22.0327 -9.95602 -82.2722
rradius 37.5762
rwrist -2.97705
rhand -18.4626 23.7416
rfingers 7.12502
rthumb 7.82388 -6.0936
lclavicle 4.88265e-015 -4.37326e-015
lhumerus -38.6479 11.5442 78.2726
lradius 20.7141
lwrist 8.11536
lhand -31.0253 13.4474
lfingers 7.12502
lthumb -4.30754 43.3836
rfemur 8.43875 6.73347 34.9076
rtibia 23.5839
rfoot -21.2473 -8.94798
rtoes -4.82293
lfemur -26.332 -6.23135 -8.6648
ltibia 12.2828
lfoot -6.7097 5.79466
ltoes -7.91923
375
root 0.54447 17.602 36.6927 0.269079 -5.39615 -7.5942
lowerback 10.6121 2.32727 6.72553
upperback -1.07378 4.076 1.50224
thorax -6.74605 1.7715 -2.8404
lowerneck -17.4912 -3.35798 -1.72738
upperneck 20.3456 -4.6295 1.86692
head 9.39025 -2.08066 0.321053
rclavicle -2.3966e-014 -1.49089e-014
rhumerus -21.7409 -9.91442 -82.3153
rradius 37.3489
rwrist -2.91724
rhand -18.5312 23.7596
rfingers 7.12502
rthumb 7.75765 -6.07809
lclavicle -2.3966e-014 -1.49089e-014
lhumerus -38.8367 12.2581 77.7553
lradius 20.2455
lwrist 7.18898
lhand -30.5545 14.2378
lfingers 7.12502
lthumb -3.85291 44.1827
rfemur 9.09533 6.58518 34.5281
rtibia 23.8683
rfoot -21.1091 -8.76963
rtoes -6.28807
lfemur -26.5507 -5.77908 -9.43897
ltibia 13.3819
lfoot -6.54246 4.4528
ltoes -4.07209
